<svg xmlns="http://www.w3.org/2000/svg" version="1.1" xmlns:xlink="http://www.w3.org/1999/xlink" width="512" height="512" x="0" y="0" viewBox="0 0 512 512" style="enable-background:new 0 0 512 512" xml:space="preserve" class=""><g><path d="M359.11 177.23a14.999 14.999 0 0 0-25.606 10.606L333.5 241H178.496v-53.164a15.002 15.002 0 0 0-9.258-13.86 15.006 15.006 0 0 0-16.347 3.254l-68.164 68.165c-5.856 5.855-5.856 15.355 0 21.21l68.164 68.168a14.992 14.992 0 0 0 10.609 4.391 14.994 14.994 0 0 0 14.996-15V271H333.5v53.164a14.998 14.998 0 0 0 25.605 10.61l68.168-68.169a14.996 14.996 0 0 0 0-21.21zM148.495 287.953 116.546 256l31.95-31.95zm215.004 0 .004-63.906L395.454 256zM15 0C6.715 0 0 6.715 0 15v482c0 8.285 6.715 15 15 15s15-6.715 15-15V15c0-8.285-6.715-15-15-15zM497 0c-8.285 0-15 6.715-15 15v482c0 8.285 6.715 15 15 15s15-6.715 15-15V15c0-8.285-6.715-15-15-15zm0 0" fill="#333333" opacity="1" data-original="#000000" class=""></path></g></svg>