<svg xmlns="http://www.w3.org/2000/svg" version="1.1" xmlns:xlink="http://www.w3.org/1999/xlink" width="512" height="512" x="0" y="0" viewBox="0 0 510 510" style="enable-background:new 0 0 512 512" xml:space="preserve" fill-rule="evenodd" class=""><g><path d="M128.796 376.069c3.195 6.941 1.863 15.477-3.933 21.063l-63.505 61.662-.031.03c-7.349 7.06-19.094 6.859-26.157-.427l-.007-.008-22.931-23.621-.006-.006c-7.126-7.358-6.921-19.12.373-26.182l63.546-61.67.007-.007c5.762-5.579 14.339-6.642 21.17-3.255l26.522-25.752c-11.77-18.935-18.568-41.284-18.568-65.222 0-68.327 55.38-123.707 123.707-123.707 31.284 0 59.854 11.61 81.637 30.756l59.512-59.512a35.259 35.259 0 0 1-5.372-18.759c0-19.562 15.882-35.445 35.445-35.445 19.562 0 35.445 15.883 35.445 35.445 0 19.563-15.883 35.445-35.445 35.445a35.259 35.259 0 0 1-18.759-5.372l-59.512 59.512c17.501 19.911 28.705 45.494 30.501 73.637h80.581c3.631-15.715 17.725-27.445 34.537-27.445 19.562 0 35.444 15.882 35.444 35.445s-15.882 35.445-35.444 35.445c-16.812 0-30.906-11.73-34.537-27.445h-80.581c-1.796 28.143-13 53.726-30.501 73.637l59.512 59.512a35.259 35.259 0 0 1 18.759-5.372c19.562 0 35.445 15.882 35.445 35.445 0 19.562-15.883 35.445-35.445 35.445-19.563 0-35.445-15.883-35.445-35.445a35.259 35.259 0 0 1 5.372-18.759l-59.512-59.512c-21.783 19.146-50.353 30.756-81.637 30.756-28.053 0-53.923-9.335-74.675-25.069zM400.205 62.007c-10.732 0-19.445 8.713-19.445 19.445s8.713 19.445 19.445 19.445 19.445-8.713 19.445-19.445-8.713-19.445-19.445-19.445zm47.903 190.667c0 10.732 8.713 19.445 19.445 19.445 10.731 0 19.444-8.713 19.444-19.445s-8.713-19.445-19.444-19.445c-10.732 0-19.445 8.713-19.445 19.445zm-47.903 151.777c-10.732 0-19.445 8.713-19.445 19.445s8.713 19.445 19.445 19.445 19.445-8.713 19.445-19.445-8.713-19.445-19.445-19.445zm-290.989-50.05 9.185 9.461 23.763-23.06a124.302 124.302 0 0 1-8.9-9.751zM336.69 252.674c0-59.49-48.217-107.707-107.707-107.707s-107.707 48.217-107.707 107.707 48.217 107.707 107.707 107.707S336.69 312.164 336.69 252.674zm-107.707-96.722c53.419 0 96.722 43.303 96.722 96.722s-43.303 96.722-96.722 96.722-96.722-43.303-96.722-96.722 43.303-96.722 96.722-96.722zm0 16c-44.583 0-80.722 36.139-80.722 80.722s36.139 80.722 80.722 80.722 80.722-36.139 80.722-80.722-36.139-80.722-80.722-80.722zm18.1 23.519a59.5 59.5 0 0 1 9.559 3.961l6.165-2.741a8 8 0 0 1 8.907 1.653l11.599 11.599a7.999 7.999 0 0 1 1.657 8.896l-2.733 6.169a59.456 59.456 0 0 1 3.97 9.586l6.284 2.419a8 8 0 0 1 5.126 7.466v16.406a7.998 7.998 0 0 1-5.126 7.466l-6.29 2.421a60.042 60.042 0 0 1-3.966 9.561l2.735 6.176a7.999 7.999 0 0 1-1.657 8.896l-11.599 11.599a7.999 7.999 0 0 1-8.896 1.657l-6.165-2.731a59.425 59.425 0 0 1-9.573 3.965l-2.42 6.287a7.998 7.998 0 0 1-7.466 5.126h-16.406a8 8 0 0 1-7.466-5.126l-2.419-6.286a60.022 60.022 0 0 1-9.579-3.97l-6.176 2.735a8 8 0 0 1-8.897-1.657l-11.598-11.599a8 8 0 0 1-1.653-8.907l2.74-6.16a59.973 59.973 0 0 1-3.968-9.563l-6.297-2.424a7.999 7.999 0 0 1-5.127-7.466v-16.406a8 8 0 0 1 5.127-7.466l6.294-2.422a59.96 59.96 0 0 1 3.972-9.576L173 218.85a8 8 0 0 1 1.653-8.907l11.598-11.599a8.001 8.001 0 0 1 8.908-1.653s6.165 2.741 6.164 2.742a59.454 59.454 0 0 1 9.567-3.964l2.435-6.31a7.999 7.999 0 0 1 7.463-5.12h16.406c3.311 0 6.28 2.04 7.468 5.131zm-13.49 9.5-1.895-4.932h-5.422l-1.907 4.942a7.997 7.997 0 0 1-5.614 4.903 43.612 43.612 0 0 0-12.803 5.306 8 8 0 0 1-7.447.499l-4.826-2.145-3.826 3.826 2.145 4.826a8 8 0 0 1-.499 7.447 43.987 43.987 0 0 0-5.326 12.837 8 8 0 0 1-4.906 5.599l-4.919 1.893v5.42l4.919 1.893a7.998 7.998 0 0 1 4.904 5.594 43.876 43.876 0 0 0 5.322 12.815 8 8 0 0 1 .505 7.458l-2.145 4.826 3.832 3.832 4.83-2.139a8 8 0 0 1 7.42.493 43.98 43.98 0 0 0 12.831 5.315 7.998 7.998 0 0 1 5.622 4.911l1.893 4.918h5.42l1.893-4.918a8 8 0 0 1 5.617-4.91 43.414 43.414 0 0 0 12.792-5.299 8 8 0 0 1 7.448-.51l4.83 2.139 3.838-3.838-2.14-4.83a8.002 8.002 0 0 1 .494-7.42 44.077 44.077 0 0 0 5.316-12.82 8 8 0 0 1 4.91-5.617l4.918-1.893v-5.42l-4.918-1.893a7.998 7.998 0 0 1-4.911-5.622 43.518 43.518 0 0 0-5.305-12.814 8.003 8.003 0 0 1-.504-7.437l2.14-4.83-3.833-3.832-4.825 2.145a8 8 0 0 1-7.447-.499 43.612 43.612 0 0 0-12.803-5.306 7.999 7.999 0 0 1-5.618-4.913zm-4.61 11.087c20.23 0 36.632 16.386 36.632 36.616 0 20.229-16.403 36.632-36.632 36.632-20.23 0-36.616-16.402-36.616-36.632 0-20.232 16.384-36.616 36.616-36.616zm0 16c-11.391 0-20.616 9.225-20.616 20.616 0 11.392 9.224 20.632 20.616 20.632 11.393 0 20.632-9.239 20.632-20.632 0-11.392-9.24-20.616-20.632-20.616zM46.657 447.26c.966.997 2.571.993 3.578.032l63.49-61.648a2.485 2.485 0 0 0 .079-3.546l-.015-.016-22.938-23.629-.007-.007c-.961-.993-2.569-1.01-3.562-.049l-63.54 61.665-.007.007c-.993.961-.985 2.56-.016 3.561l22.931 23.622z" fill="#333333" opacity="1" data-original="#000000"></path></g></svg>