<svg id="Capa_1" enable-background="new 0 0 512 512" height="512" viewBox="0 0 512 512" width="512" xmlns="http://www.w3.org/2000/svg"><g><path d="m81.53 312h-61.53c-11.046 0-20 8.954-20 20v160c0 11.046 8.954 20 20 20h61.53c11.046 0 20-8.954 20-20v-160c0-11.046-8.954-20-20-20z"/><path d="m502.256 302.526c-12.536-12.536-32.7-13.04-45.847-1.146l-72.434 65.536c.033.859.066 1.718.066 2.584 0 37.22-30.28 67.5-67.5 67.5h-94.452c-8.284 0-15-6.716-15-15s6.716-15 15-15h94.452c20.711 0 37.5-16.789 37.5-37.5s-16.789-37.5-37.5-37.5h-82.964c-19.195-12.583-41.437-18.999-64.421-18.6-12.989.234-25.669 2.651-37.625 7.103v171.497h197.069c26.324 0 51.697-11.063 69.612-30.354l104.896-112.955c12.179-13.113 11.802-33.511-.852-46.165z"/><path d="m178.587 287.898h218.37c34.253 0 55.948-36.747 39.401-66.739l-109.185-197.897c-17.112-31.015-61.69-31.015-78.802 0l-109.185 197.897c-16.547 29.992 5.148 66.739 39.401 66.739zm94.185-190c0-8.284 6.716-15 15-15s15 6.716 15 15v65c0 8.284-6.716 15-15 15s-15-6.716-15-15zm15 100c8.284 0 15 6.716 15 15s-6.716 15-15 15-15-6.716-15-15 6.716-15 15-15z"/></g></svg>