<svg id="Layer_1" enable-background="new 0 0 512 512" height="512" viewBox="0 0 512 512" width="512" xmlns="http://www.w3.org/2000/svg"><path clip-rule="evenodd" d="m322.972 227.808c-51.14 0-92.594 41.453-92.594 92.594s41.454 92.593 92.594 92.593c22.796 0 43.662-8.241 59.795-21.901l26.403 25.881-1.053 1.085c-3.502 3.609-3.415 9.43.195 12.932l55.241 53.604c3.61 3.502 9.429 3.416 12.932-.194l19.945-20.554c3.503-3.61 3.414-9.428-.195-12.931l-55.242-53.605c-3.609-3.503-9.429-3.415-12.931.194l-1.22 1.257-27.106-26.567c9.995-14.781 15.829-32.607 15.829-51.795 0-51.139-41.452-92.593-92.593-92.593zm-58.311-171.96 93.389 161.754c-9.91-3.381-20.465-5.364-31.43-5.727l-83.058-143.858-.014.008c-3.411-5.901-8.152-10.603-13.76-13.84-5.636-3.254-12.074-5.015-18.849-5.015s-13.214 1.761-18.849 5.015c-5.457 3.15-10.092 7.688-13.482 13.366-.102.151-.2.306-.292.466l-135.841 235.283.014.008-.014.023c-3.425 5.932-5.137 12.382-5.137 18.817s1.713 12.884 5.137 18.817c3.413 5.911 8.159 10.622 13.774 13.864 5.636 3.254 12.074 5.015 18.85 5.015h146.67c3.401 8.716 7.896 16.884 13.315 24.337h-159.986c-22.336 0-42.554-11.672-53.722-31.016s-11.168-42.689 0-62.033l135.842-235.284c11.168-19.344 31.385-31.016 53.722-31.016 22.336 0 42.553 11.673 53.721 31.016zm-53.722 212.632c-9.381 0-16.986 7.605-16.986 16.986s7.605 16.986 16.986 16.986c1.759 0 3.455-.267 5.051-.764-1.057 6.079-1.612 12.331-1.612 18.713 0 8.049.882 15.892 2.545 23.442h-141.825c-4.009 0-7.734-.993-10.912-2.828-3.199-1.846-5.92-4.561-7.899-7.989-1.967-3.406-2.95-7.136-2.95-10.879 0-3.734.979-7.456 2.937-10.856l.013.008 135.842-235.282c.075-.128.145-.258.211-.389 1.959-3.259 4.601-5.849 7.688-7.63 3.178-1.835 6.903-2.828 10.912-2.828s7.734.993 10.912 2.828c3.198 1.847 5.92 4.56 7.899 7.988l.014.023-.014.008 78.94 136.727c-37.568 4.938-69.087 29.08-84.379 62.245-3.112-3.963-7.945-6.509-13.373-6.509zm.001-17.761c7.135 0 12.993-5.65 13.251-12.78l3.352-92.815c.134-3.733-1.114-6.995-3.707-9.684-2.593-2.688-5.808-4.054-9.543-4.054-4.739 0-1.965 0-6.704 0-3.735 0-6.95 1.366-9.543 4.054s-3.842 5.951-3.707 9.684l3.351 92.815c.256 7.13 6.114 12.781 13.25 12.78zm112.032 4.208c36.16 0 65.474 29.314 65.474 65.474s-29.314 65.474-65.474 65.474c-36.161 0-65.474-29.314-65.474-65.474s29.314-65.474 65.474-65.474z" fill-rule="evenodd"/></svg>