<svg id="Capa_1" enable-background="new 0 0 512 512" height="512" viewBox="0 0 512 512" width="512" xmlns="http://www.w3.org/2000/svg"><g><g><path d="m191 0h-85c-19.299 0-35 15.701-35 35v80c0 19.299 15.701 35 35 35h85z"/><path d="m406 0h-185v150h185c19.299 0 35-15.701 35-35v-80c0-19.299-15.701-35-35-35zm-25 90h-100c-8.284 0-15-6.716-15-15s6.716-15 15-15h100c8.284 0 15 6.716 15 15s-6.716 15-15 15z"/></g><g><path d="m262 362h-85c-19.299 0-35 15.701-35 35v80c0 19.299 15.701 35 35 35h85z"/><path d="m477 362h-185v150h185c19.299 0 35-15.701 35-35v-80c0-19.299-15.701-35-35-35zm-25 90h-100c-8.284 0-15-6.716-15-15s6.716-15 15-15h100c8.284 0 15 6.716 15 15s-6.716 15-15 15z"/></g><g><path d="m120 181h-85c-19.299 0-35 15.701-35 35v80c0 19.299 15.701 35 35 35h85z"/><path d="m335 181h-185v150h185c19.299 0 35-15.701 35-35v-80c0-19.299-15.701-35-35-35zm-25 90h-100c-8.284 0-15-6.716-15-15s6.716-15 15-15h100c8.284 0 15 6.716 15 15s-6.716 15-15 15z"/></g><path d="m406.394 265.393c-5.858 5.858-5.858 15.355 0 21.213l40 40c5.858 5.858 15.355 5.858 21.213 0l40-40c5.858-5.858 5.858-15.355 0-21.213-5.858-5.858-15.355-5.858-21.213 0l-14.394 14.394v-83.787c0-8.284-6.716-15-15-15s-15 6.716-15 15v83.787l-14.394-14.394c-5.857-5.857-15.355-5.857-21.212 0z"/><path d="m65.607 366.394c-5.858-5.858-15.355-5.858-21.213 0l-40 40c-5.858 5.858-5.858 15.355 0 21.213 5.858 5.858 15.355 5.858 21.213 0l14.393-14.394v83.787c0 8.284 6.716 15 15 15s15-6.716 15-15v-83.787l14.394 14.394c5.858 5.858 15.355 5.858 21.213 0 5.858-5.858 5.858-15.355 0-21.213z"/></g></svg>