<svg enable-background="new 0 0 24 24" height="512" viewBox="0 0 24 24" width="512" xmlns="http://www.w3.org/2000/svg"><path d="m9.625 18.521c-.066.065-.112.148-.133.239l-1.09 4.626c-.04.168.011.346.133.468.095.094.223.146.354.146.038 0 .077-.004.115-.014l4.625-1.09c.09-.021.173-.067.239-.133l6.541-6.541-4.243-4.243z"/><path d="m23.414 10.389-1.414-1.414c-.756-.756-2.073-.756-2.829 0l-1.944 1.944 4.243 4.243 1.944-1.944c.378-.378.586-.88.586-1.414 0-.535-.208-1.037-.586-1.415z"/><path d="m6.84 19h-4.34c-.276 0-.5-.224-.5-.5v-2.5h7.5c.552 0 1-.448 1-1v-4h4.07c.552 0 1-.448 1-1s-.448-1-1-1h-4.07v-3h6.5v1c0 .552.448 1 1 1s1-.448 1-1v-4.75c0-1.241-1.009-2.25-2.25-2.25h-14.5c-1.241 0-2.25 1.009-2.25 2.25v16.25c0 1.378 1.122 2.5 2.5 2.5h4.34c.552 0 1-.448 1-1s-.448-1-1-1zm1.66-5h-6.5v-3h6.5zm0-5h-6.5v-3h6.5z"/></svg>